<?xml version="1.0" standalone="no"?>
<!DOCTYPE svg PUBLIC "-//W3C//DTD SVG 20010904//EN"
 "http://www.w3.org/TR/2001/REC-SVG-20010904/DTD/svg10.dtd">
<svg version="1.0" xmlns="http://www.w3.org/2000/svg"
 width="300.000000pt" height="84.000000pt" viewBox="0 0 300.000000 84.000000"
 preserveAspectRatio="xMidYMid meet">
<metadata>
Created by potrace 1.10, written by Peter Selinger 2001-2011
</metadata>
<g transform="translate(0.000000,84.000000) scale(0.100000,-0.100000)"
fill="#000000" stroke="none">
<path d="M0 420 l0 -420 1500 0 1500 0 0 420 0 420 -1500 0 -1500 0 0 -420z
m196 334 c-3 -9 -6 -20 -6 -25 0 -5 -18 -9 -40 -9 -36 0 -40 -2 -40 -25 0 -22
4 -25 35 -25 31 0 35 -3 35 -25 0 -22 -4 -25 -35 -25 l-35 0 0 -50 c0 -49 -1
-50 -30 -50 l-30 0 0 125 0 125 76 0 c65 0 75 -2 70 -16z m163 -52 c11 -37 29
-93 40 -125 l20 -57 -35 0 c-30 0 -34 3 -34 26 0 23 -3 25 -42 22 -36 -2 -44
-7 -46 -25 -3 -18 -10 -23 -34 -23 -20 0 -29 4 -26 13 41 110 59 180 48 187
-9 6 -9 13 -1 29 9 16 21 21 51 21 l39 0 20 -68z m165 35 c10 -17 27 -49 38
-69 11 -21 23 -38 27 -38 3 0 4 32 3 71 l-4 70 27 -3 26 -3 2 -123 2 -122 -25
0 c-20 0 -33 14 -67 73 l-43 72 0 -72 c0 -71 -1 -73 -25 -73 -25 0 -25 0 -25
100 0 93 -1 100 -20 100 -17 0 -18 3 -8 25 18 39 67 35 92 -8z m332 17 c-3 -9
-6 -20 -6 -25 0 -5 -11 -9 -25 -9 -25 0 -25 0 -25 -100 l0 -100 -30 0 -30 0 0
100 0 100 -30 0 c-25 0 -30 4 -30 25 0 25 1 25 91 25 79 0 90 -2 85 -16z m165
-86 c17 -57 35 -113 40 -126 8 -22 7 -23 -24 -20 -25 2 -33 8 -35 26 -3 20 -8
23 -45 20 -35 -2 -43 -7 -45 -25 -3 -18 -10 -23 -34 -23 -20 0 -29 4 -26 13
41 110 59 180 48 187 -9 6 -9 13 -1 29 9 16 21 21 51 21 l39 0 32 -102z m217
93 c11 -7 12 -12 1 -29 -10 -16 -17 -18 -36 -11 -12 4 -30 6 -38 3 -28 -11
-15 -34 34 -58 55 -29 67 -53 46 -102 -16 -38 -43 -48 -123 -45 -30 1 -33 4
-30 28 3 26 6 27 49 25 34 -3 48 1 52 12 6 16 -27 46 -50 46 -7 0 -22 9 -33
20 -48 48 -4 120 72 120 24 0 49 -4 56 -9z m114 -41 c11 -27 24 -50 27 -50 3
0 14 23 24 50 16 45 21 50 47 50 17 0 30 -2 30 -5 0 -3 -18 -42 -41 -87 -32
-63 -40 -90 -37 -120 3 -37 2 -38 -27 -38 -29 0 -30 1 -27 39 3 30 -5 57 -37
120 -23 45 -41 84 -41 87 0 2 14 4 31 4 27 0 32 -5 51 -50z m409 -75 c21 -66
39 -121 39 -123 0 -2 -15 -2 -32 0 -25 2 -34 8 -36 26 -3 18 -10 22 -43 22
-33 0 -40 -4 -45 -25 -5 -20 -13 -25 -36 -25 -25 0 -29 3 -23 18 4 9 19 54 34
100 20 60 24 82 14 82 -10 0 -10 5 -1 25 10 22 17 26 51 23 l38 -3 40 -120z
m116 46 c7 -40 14 -75 17 -78 2 -2 12 32 21 76 17 77 19 81 45 81 25 0 28 -4
40 -62 23 -119 25 -120 41 -32 15 89 18 94 45 94 13 0 24 -3 24 -7 0 -5 -12
-61 -27 -125 l-27 -118 -32 0 c-30 0 -32 2 -44 63 -21 106 -22 105 -54 -35 -5
-23 -12 -28 -35 -28 -28 0 -29 2 -55 108 -15 59 -29 115 -32 125 -5 16 -1 18
27 15 33 -3 34 -3 46 -77z m392 42 c6 -21 24 -77 40 -125 l30 -88 -34 0 c-27
0 -34 4 -37 23 -2 18 -10 23 -45 25 -40 3 -43 1 -43 -22 0 -22 -4 -26 -30 -26
-16 0 -30 4 -30 8 0 5 14 48 30 97 21 61 27 91 19 96 -8 5 -8 12 0 28 9 16 21
21 51 21 37 0 40 -2 49 -37z m240 13 c28 -25 28 -79 1 -106 l-21 -21 31 -44
c16 -24 30 -46 30 -50 0 -3 -14 -5 -31 -3 -27 2 -37 12 -62 57 -27 48 -29 54
-14 63 9 5 22 18 28 29 13 25 -3 49 -33 49 -18 0 -19 -7 -16 -100 l3 -100 -30
0 -30 0 0 126 -1 126 63 -4 c42 -3 68 -10 82 -22z m211 9 c42 -22 60 -53 60
-107 0 -103 -39 -133 -167 -129 l-33 1 0 125 0 125 55 0 c31 0 69 -7 85 -15z
m248 6 c11 -7 12 -12 1 -29 -10 -16 -17 -18 -36 -11 -12 4 -30 6 -38 3 -28
-11 -15 -34 35 -59 47 -24 50 -27 50 -65 0 -66 -32 -86 -125 -80 -40 3 -43 5
-38 33 4 22 9 24 52 19 38 -3 49 -1 54 12 6 16 -26 46 -50 46 -23 0 -53 39
-53 69 0 41 40 71 94 71 22 0 47 -4 54 -9z m-2483 -617 c18 -45 19 -65 1 -41
-17 22 -42 22 -50 1 -4 -9 -9 -15 -12 -12 -7 8 26 88 37 88 5 0 16 -16 24 -36z
m115 5 c0 -11 5 -17 10 -14 6 3 10 15 10 26 0 27 24 19 28 -9 4 -27 22 -19 22
9 0 10 5 19 10 19 11 0 4 -42 -13 -75 -9 -18 -11 -17 -22 15 l-12 34 -12 -34
-12 -35 -15 34 c-16 39 -18 65 -4 56 6 -3 10 -15 10 -26z m235 -9 c10 -22 15
-43 12 -47 -4 -3 -9 2 -13 11 -8 21 -40 21 -48 0 -4 -9 -9 -14 -13 -11 -7 8
27 87 37 87 4 0 15 -18 25 -40z m162 23 c4 -9 1 -19 -5 -21 -9 -3 -9 -9 -1
-24 6 -11 8 -22 6 -25 -3 -2 -10 5 -17 16 -12 23 -32 29 -24 7 3 -8 1 -17 -5
-21 -7 -4 -11 10 -11 39 0 43 2 46 25 46 15 0 28 -7 32 -17z m161 5 c19 -19
14 -46 -13 -64 -37 -24 -55 -12 -55 36 0 37 2 40 28 40 15 0 33 -5 40 -12z
m152 2 c0 -5 -7 -7 -15 -4 -8 4 -15 1 -15 -5 0 -7 7 -14 15 -17 20 -8 19 -43
-1 -51 -8 -3 -20 -1 -27 6 -8 8 -5 11 11 11 27 0 29 16 2 25 -20 6 -26 25 -13
38 10 11 43 8 43 -3z m270 -27 c8 -21 17 -42 19 -48 2 -5 -5 -2 -16 8 -25 22
-39 22 -52 0 -6 -10 -11 -13 -11 -7 0 18 29 84 38 84 4 0 14 -17 22 -37z m165
27 c4 -6 1 -18 -6 -26 -9 -11 -9 -18 -1 -26 14 -14 15 -28 3 -28 -5 0 -13 9
-16 20 -8 27 -23 25 -28 -2 -2 -13 -5 -2 -6 25 -1 44 1 47 23 47 14 0 28 -5
31 -10z m138 3 c-13 -2 -23 -11 -23 -18 0 -8 6 -12 14 -9 8 3 17 1 21 -5 3 -7
-2 -11 -14 -11 -12 0 -21 -4 -21 -10 0 -5 9 -10 20 -10 11 0 20 -5 20 -11 0
-6 -12 -9 -27 -7 -25 3 -28 7 -31 46 -3 42 -3 42 30 41 23 -1 26 -3 11 -6z
m249 -34 c-6 -55 -22 -59 -22 -5 0 34 4 46 13 43 7 -2 11 -17 9 -38z m58 2 c0
-48 -13 -59 -34 -29 -20 28 -20 50 -1 24 14 -19 15 -18 15 12 0 18 5 32 10 32
6 0 10 -18 10 -39z m110 -7 c0 -27 -4 -43 -10 -39 -5 3 -10 24 -10 46 0 21 5
39 10 39 6 0 10 -21 10 -46z m166 35 c4 -7 0 -9 -13 -5 -24 8 -48 -17 -39 -40
4 -11 14 -15 32 -11 15 3 23 0 21 -7 -6 -18 -49 -12 -62 9 -19 29 -2 65 29 65
14 0 28 -5 32 -11z m137 4 c-13 -2 -23 -11 -23 -18 0 -8 6 -12 14 -9 8 3 17 1
21 -5 3 -7 -2 -11 -14 -11 -12 0 -21 -4 -21 -10 0 -5 9 -10 20 -10 11 0 20 -5
20 -11 0 -6 -12 -9 -27 -7 -25 3 -28 7 -31 46 -3 42 -3 42 30 41 23 -1 26 -3
11 -6z"/>
<path d="M296 674 c-4 -16 -9 -37 -12 -46 -4 -14 1 -18 21 -18 25 0 26 2 20
33 -12 53 -21 63 -29 31z"/>
<path d="M946 673 c-4 -15 -9 -36 -12 -45 -4 -14 1 -18 21 -18 24 0 26 2 19
38 -9 50 -20 60 -28 25z"/>
<path d="M1677 673 c-3 -16 -9 -36 -12 -45 -6 -15 -2 -18 20 -18 25 0 27 2 21
31 -3 17 -6 38 -6 45 0 25 -17 15 -23 -13z"/>
<path d="M2211 665 c-15 -54 -15 -55 14 -55 28 0 29 9 11 60 l-13 35 -12 -40z"/>
<path d="M2640 639 l0 -81 27 7 c44 11 53 24 53 75 0 52 -21 80 -58 80 -21 0
-22 -5 -22 -81z"/>
<path d="M957 164 c-8 -8 1 -24 14 -24 5 0 9 7 9 15 0 15 -12 20 -23 9z"/>
<path d="M1110 139 c0 -24 4 -30 17 -27 22 4 30 38 11 49 -22 15 -28 10 -28
-22z"/>
<path d="M1702 159 c2 -6 8 -10 13 -10 5 0 11 4 13 10 2 6 -4 11 -13 11 -9 0
-15 -5 -13 -11z"/>
</g>
</svg>
