<?xml version="1.0" standalone="no"?>
<!DOCTYPE svg PUBLIC "-//W3C//DTD SVG 20010904//EN"
 "http://www.w3.org/TR/2001/REC-SVG-20010904/DTD/svg10.dtd">
<svg version="1.0" xmlns="http://www.w3.org/2000/svg"
 width="300.000000pt" height="84.000000pt" viewBox="0 0 300.000000 84.000000"
 preserveAspectRatio="xMidYMid meet">
<metadata>
Created by potrace 1.10, written by Peter Selinger 2001-2011
</metadata>
<g transform="translate(0.000000,84.000000) scale(0.100000,-0.100000)"
fill="#000000" stroke="none">
<path d="M50 645 l0 -125 30 0 c29 0 30 1 30 50 l0 50 35 0 c31 0 35 3 35 25
0 22 -4 25 -35 25 -31 0 -35 3 -35 25 0 23 4 25 40 25 22 0 40 4 40 9 0 5 3
16 6 25 5 14 -5 16 -70 16 l-76 0 0 -125z"/>
<path d="M255 750 c-3 -11 -4 -24 -1 -29 5 -8 -28 -127 -51 -188 -4 -9 4 -13
25 -13 24 0 31 5 34 23 2 18 10 23 41 25 32 3 38 0 47 -22 7 -19 17 -26 35
-26 14 0 25 5 25 11 0 6 -16 62 -36 125 l-36 114 -38 0 c-30 0 -40 -5 -45 -20z
m66 -133 c-5 -5 -16 -7 -25 -4 -12 5 -13 12 -3 43 l11 37 14 -33 c9 -22 10
-36 3 -43z"/>
<path d="M442 758 c-17 -17 -15 -38 3 -38 12 0 15 -18 15 -100 0 -100 0 -100
25 -100 23 0 24 3 27 67 l3 68 40 -67 c30 -51 45 -68 63 -68 22 0 22 2 22 125
l0 125 -25 0 c-23 0 -24 -3 -27 -67 l-3 -68 -42 68 c-33 52 -48 67 -66 67 -12
0 -28 -5 -35 -12z"/>
<path d="M680 745 c0 -21 5 -25 30 -25 l30 0 0 -100 0 -100 30 0 30 0 0 100
c0 100 0 100 25 100 14 0 25 4 25 9 0 5 3 16 6 25 5 14 -6 16 -85 16 -90 0
-91 0 -91 -25z"/>
<path d="M905 750 c-3 -11 -4 -24 -1 -29 5 -8 -28 -127 -51 -188 -3 -9 3 -13
21 -13 19 0 29 7 36 25 8 20 16 25 45 25 29 0 37 -5 45 -25 7 -18 17 -25 35
-25 14 0 25 5 25 11 0 6 -16 62 -36 125 l-35 114 -39 0 c-30 0 -40 -5 -45 -20z
m66 -133 c-5 -5 -16 -7 -25 -4 -12 5 -13 12 -3 43 l11 37 14 -33 c9 -22 10
-36 3 -43z"/>
<path d="M1115 745 c-44 -43 -31 -89 32 -116 61 -26 57 -53 -10 -57 -42 -3
-47 -5 -47 -28 0 -22 3 -24 54 -24 70 0 86 7 101 43 19 46 3 79 -50 105 -25
12 -45 29 -45 37 0 16 8 18 52 15 37 -2 58 35 25 44 -48 13 -88 6 -112 -19z"/>
<path d="M1270 765 c0 -3 18 -41 40 -85 27 -53 40 -93 40 -120 0 -36 2 -40 25
-40 23 0 25 4 25 40 0 27 13 67 40 120 22 44 40 82 40 85 0 3 -13 5 -29 5 -25
0 -31 -7 -51 -52 l-23 -53 -23 53 c-21 46 -27 52 -54 52 -16 0 -30 -2 -30 -5z"/>
<path d="M1641 756 c-7 -8 -10 -23 -7 -33 3 -11 -7 -60 -23 -111 l-29 -92 28
0 c21 0 29 6 34 25 5 21 12 25 45 25 33 0 40 -4 45 -25 5 -20 13 -25 36 -25
l29 0 -15 48 c-60 197 -59 197 -96 200 -22 2 -39 -3 -47 -12z m62 -103 c6 -32
1 -43 -19 -43 -15 0 -17 12 -8 48 8 30 21 28 27 -5z"/>
<path d="M1810 750 c0 -11 12 -68 26 -125 26 -101 27 -105 54 -105 25 0 28 5
45 65 9 36 21 63 25 60 4 -2 13 -32 20 -65 13 -60 14 -61 44 -58 31 3 31 4 58
113 34 135 34 135 4 135 -27 0 -28 -3 -47 -95 -6 -33 -14 -55 -16 -48 -2 6
-12 40 -21 75 -15 56 -20 63 -42 63 -22 0 -27 -7 -42 -64 -9 -35 -19 -65 -22
-68 -2 -2 -10 22 -16 54 -17 84 -17 83 -45 83 -18 0 -25 -5 -25 -20z"/>
<path d="M2171 752 c-6 -12 -7 -22 0 -29 6 -6 1 -34 -14 -79 -41 -119 -41
-124 -12 -124 18 0 28 7 35 25 8 20 16 25 45 25 29 0 37 -5 45 -25 7 -18 17
-25 35 -25 14 0 25 3 25 8 0 4 -16 60 -36 125 l-38 117 -37 0 c-27 0 -41 -5
-48 -18z m72 -134 c-2 -5 -10 -8 -18 -8 -20 0 -23 11 -12 50 l10 35 12 -35 c7
-19 10 -38 8 -42z"/>
<path d="M2370 646 l0 -126 25 0 c23 0 25 3 25 50 0 28 3 50 8 50 4 0 19 -23
34 -50 24 -43 32 -50 59 -50 l31 0 -27 46 c-26 45 -27 48 -11 75 9 15 16 40
16 56 0 45 -31 66 -100 71 l-60 4 0 -126z m98 45 c3 -15 -3 -30 -14 -38 -28
-21 -34 -16 -34 28 0 36 2 40 23 37 15 -2 23 -11 25 -27z"/>
<path d="M2580 645 l0 -125 60 0 c105 0 140 32 140 128 0 82 -50 122 -150 122
l-50 0 0 -125z m122 58 c11 -10 18 -30 18 -55 0 -55 -15 -78 -50 -78 l-30 0 0
75 c0 70 1 75 22 75 12 0 30 -7 40 -17z"/>
<path d="M2845 745 c-44 -43 -31 -89 31 -116 31 -13 44 -24 44 -39 0 -17 -6
-20 -50 -20 -46 0 -50 -2 -50 -24 0 -21 6 -25 33 -28 47 -5 100 8 114 28 14
19 17 72 5 90 -4 6 -26 21 -49 33 -63 31 -58 56 9 51 37 -2 58 35 25 44 -48
13 -88 6 -112 -19z"/>
<path d="M600 110 c0 -7 3 -10 7 -7 3 4 3 10 0 14 -4 3 -7 0 -7 -7z"/>
</g>
</svg>
