<?xml version="1.0" standalone="no"?>
<!DOCTYPE svg PUBLIC "-//W3C//DTD SVG 20010904//EN"
 "http://www.w3.org/TR/2001/REC-SVG-20010904/DTD/svg10.dtd">
<svg version="1.0" xmlns="http://www.w3.org/2000/svg"
 width="900.000000pt" height="252.000000pt" viewBox="0 0 900.000000 252.000000"
 preserveAspectRatio="xMidYMid meet">
<metadata>
Created by potrace 1.10, written by Peter Selinger 2001-2011
</metadata>
<g transform="translate(0.000000,252.000000) scale(0.100000,-0.100000)"
fill="#000000" stroke="none">
<path d="M352 2302 l-212 -2 2 -378 3 -377 85 0 85 0 0 150 0 150 108 -3 107
-2 0 81 0 81 -107 -3 -108 -4 -3 71 c-2 49 1 74 10 81 8 6 49 7 108 2 102 -7
130 -1 130 32 0 11 7 34 16 50 16 32 16 72 -1 73 -5 1 -106 0 -223 -2z"/>
<path d="M3470 2300 c-116 -12 -200 -96 -208 -209 -3 -48 0 -66 20 -102 30
-53 66 -79 161 -114 100 -38 121 -50 131 -79 7 -19 5 -35 -7 -60 -14 -30 -22
-36 -62 -42 -52 -7 -133 1 -183 19 -29 10 -36 9 -47 -6 -17 -24 -28 -128 -15
-141 6 -6 52 -16 103 -22 106 -13 210 -3 268 26 93 48 142 158 118 266 -10 45
-20 62 -55 92 -23 20 -64 45 -91 56 -26 10 -67 25 -91 35 -24 9 -52 24 -63 34
-39 36 -13 98 48 113 24 6 105 -10 155 -31 13 -5 25 6 53 49 19 30 35 61 35
69 0 29 -165 57 -270 47z"/>
<path d="M4332 2303 l-73 -4 -21 -47 c-12 -26 -27 -60 -33 -77 -7 -16 -20 -47
-29 -68 -9 -21 -16 -46 -16 -55 0 -23 -28 -62 -44 -62 -7 0 -23 30 -36 68 -12
37 -33 90 -46 118 -13 28 -24 56 -24 63 0 6 -7 23 -16 36 -15 23 -22 25 -105
25 -102 0 -106 -5 -64 -75 13 -22 40 -74 60 -115 21 -41 41 -82 45 -90 5 -8
31 -60 58 -115 l51 -100 -7 -123 c-4 -75 -3 -127 2 -132 13 -13 149 -13 162 0
5 5 6 57 2 131 l-6 121 105 207 c57 113 110 213 118 221 22 25 29 62 14 71 -8
5 -16 8 -19 7 -3 -1 -38 -4 -78 -5z"/>
<path d="M8660 2300 c-127 -13 -211 -102 -210 -222 1 -66 31 -123 86 -160 42
-28 110 -56 157 -65 15 -3 41 -21 57 -41 l29 -35 -19 -37 c-11 -21 -29 -40
-42 -44 -34 -9 -107 -7 -158 5 -103 23 -99 24 -105 -7 -3 -16 -10 -43 -15 -60
-15 -48 -12 -61 18 -72 48 -19 183 -30 256 -20 96 13 148 42 196 108 22 31 25
45 25 126 0 115 -19 148 -112 194 -35 16 -67 30 -73 30 -6 0 -36 12 -66 26
-61 29 -77 60 -53 103 21 37 66 47 136 29 32 -9 66 -19 75 -23 13 -5 25 6 53
49 19 30 35 61 35 69 0 29 -166 58 -270 47z"/>
<path d="M746 2241 c-20 -32 -36 -64 -36 -70 0 -6 14 -11 30 -11 40 0 45 -18
22 -77 -11 -26 -34 -93 -51 -148 -17 -55 -36 -113 -42 -130 -6 -16 -14 -43
-19 -60 -5 -16 -18 -55 -30 -85 -13 -30 -25 -70 -27 -87 l-5 -33 81 5 c45 2
86 7 91 10 6 3 10 22 10 41 0 19 7 50 14 69 l15 35 109 0 c76 0 113 -4 120
-12 5 -7 12 -37 14 -66 3 -29 10 -58 15 -63 14 -14 164 -19 180 -7 9 7 9 17
-3 44 -7 19 -21 50 -29 69 -8 20 -15 42 -15 50 0 8 -6 29 -14 47 -8 18 -22 60
-31 93 -10 33 -23 76 -30 95 -8 19 -27 80 -43 135 -17 55 -38 126 -48 158
l-18 57 -112 0 -113 0 -35 -59z m188 -208 c9 -32 26 -85 37 -119 28 -86 23
-94 -67 -94 l-74 0 0 28 c0 15 4 32 9 38 11 11 41 127 41 158 0 21 17 46 31
46 4 0 14 -26 23 -57z"/>
<path d="M1324 2288 c-26 -35 -64 -119 -59 -128 4 -7 26 -8 57 -4 l50 7 -3
-309 -3 -308 78 -2 79 -1 -5 208 c-6 254 0 270 60 152 21 -43 49 -94 60 -113
12 -19 26 -44 32 -55 6 -11 19 -33 30 -50 10 -16 31 -54 47 -82 15 -29 32 -53
38 -54 89 -6 126 -5 131 3 4 6 7 593 4 741 0 9 -157 9 -164 -1 -4 -6 10 -322
17 -387 1 -13 -5 -21 -19 -23 -15 -2 -25 8 -43 45 -12 26 -29 61 -37 76 -9 15
-21 38 -28 50 -6 12 -24 41 -39 65 -15 23 -37 59 -48 80 -57 105 -46 97 -141
100 -60 2 -88 -1 -94 -10z"/>
<path d="M2030 2223 c0 -50 4 -75 13 -78 6 -3 44 -1 82 4 39 5 74 5 79 1 5 -5
9 -143 10 -307 l1 -298 85 1 85 0 2 298 c1 164 5 302 10 307 4 4 30 3 56 -2
54 -10 87 1 87 29 0 9 7 30 15 46 8 15 15 38 15 51 l0 22 -270 0 -270 0 0 -74z"/>
<path d="M2718 2278 c-29 -45 -59 -110 -53 -116 3 -3 18 -6 33 -7 35 0 34 -21
-7 -140 -17 -49 -36 -103 -42 -120 -6 -16 -21 -64 -34 -105 -36 -113 -46 -142
-61 -173 -8 -16 -14 -39 -14 -53 0 -23 1 -23 82 -19 87 4 98 11 98 58 0 15 7
43 14 62 l15 35 108 0 c72 0 113 -4 121 -12 7 -7 12 -29 12 -50 0 -36 17 -87
29 -89 43 -6 163 -4 167 2 6 10 -11 70 -32 112 -8 16 -14 37 -14 47 0 11 -6
34 -14 52 -7 18 -21 60 -31 93 -9 33 -23 76 -30 95 -32 91 -75 231 -75 247 0
10 -9 37 -20 61 l-19 42 -109 0 c-103 0 -111 -1 -124 -22z m160 -200 c5 -7 13
-40 17 -73 4 -33 13 -73 20 -90 38 -85 30 -97 -61 -93 -63 3 -69 5 -72 26 -2
13 1 29 7 35 10 13 27 73 40 142 11 63 27 79 49 53z"/>
<path d="M4912 2273 c-25 -36 -52 -89 -52 -103 0 -5 13 -10 29 -10 17 0 33 -5
37 -11 3 -6 -5 -38 -18 -72 -37 -94 -46 -121 -88 -262 -15 -52 -32 -99 -46
-128 -8 -16 -14 -33 -14 -39 0 -5 -7 -25 -16 -44 -29 -62 -13 -68 153 -55 6 1
14 20 18 44 3 23 11 57 17 75 l10 33 116 -3 116 -3 13 -65 c7 -35 17 -68 23
-74 5 -5 48 -10 96 -12 l86 -3 -5 27 c-3 15 -15 52 -27 82 -12 30 -25 69 -30
85 -5 17 -13 44 -19 60 -6 17 -25 75 -41 130 -17 55 -35 114 -41 130 -6 17
-14 44 -19 60 -5 17 -13 44 -18 60 -6 17 -16 50 -24 75 l-13 45 -112 3 -111 3
-20 -28z m172 -211 c2 -10 7 -39 11 -65 4 -27 13 -67 21 -90 8 -23 12 -52 9
-64 -5 -21 -11 -23 -71 -23 -78 0 -84 8 -59 88 9 31 22 82 28 112 6 30 15 58
20 62 15 9 36 -1 41 -20z"/>
<path d="M5390 2277 c0 -13 4 -27 9 -32 10 -11 39 -115 50 -180 4 -22 12 -56
19 -75 14 -45 37 -136 57 -230 14 -62 28 -121 50 -205 1 -6 38 -10 86 -9 l84
0 18 80 c10 43 23 93 29 109 10 29 21 88 37 188 14 92 56 92 65 0 3 -32 11
-78 17 -103 23 -94 41 -176 46 -215 3 -22 11 -45 18 -50 17 -14 162 -10 179 4
8 7 16 33 19 59 4 44 39 193 71 307 8 28 22 86 31 130 10 44 23 98 31 120 7
22 16 59 20 83 l7 42 -81 0 -81 0 -16 -52 c-8 -28 -15 -62 -15 -74 0 -12 -6
-52 -14 -90 -8 -38 -20 -103 -26 -144 -14 -94 -23 -125 -35 -125 -15 0 -36 70
-46 154 -6 41 -14 82 -19 92 -6 10 -10 32 -10 49 0 17 -7 47 -15 67 -8 19 -15
50 -15 68 0 47 -17 56 -101 53 l-73 -3 -13 -65 c-8 -36 -18 -83 -23 -105 -5
-22 -18 -87 -29 -145 -29 -150 -29 -152 -49 -148 -12 2 -19 17 -23 48 -4 25
-12 80 -18 123 -6 43 -13 82 -16 87 -3 5 -10 49 -16 97 -5 48 -15 93 -21 100
-7 9 -38 13 -99 13 -86 0 -89 -1 -89 -23z"/>
<path d="M6502 2244 c-40 -70 -41 -84 -2 -84 40 0 47 -21 21 -63 -12 -19 -21
-45 -21 -59 0 -13 -4 -28 -8 -33 -5 -6 -19 -44 -31 -85 -13 -41 -29 -91 -36
-110 -7 -19 -22 -64 -33 -100 -11 -36 -28 -82 -37 -104 -25 -59 -18 -66 71
-62 89 4 104 15 104 79 0 73 7 77 130 77 101 0 110 -2 124 -22 9 -12 16 -41
16 -63 0 -22 4 -46 9 -53 9 -16 159 -24 177 -10 12 8 -3 70 -26 110 -6 10 -10
25 -10 34 0 9 -6 30 -13 47 -19 45 -47 132 -47 147 0 7 -6 26 -14 43 -8 18
-17 43 -19 57 -3 14 -17 59 -30 100 -14 41 -34 104 -45 140 l-19 65 -114 3
-114 3 -33 -57z m183 -181 c10 -47 25 -106 40 -154 27 -87 26 -89 -61 -89
l-76 0 5 38 c3 20 11 57 18 82 7 25 19 69 26 98 16 57 39 69 48 25z"/>
<path d="M7095 2293 c-11 -8 -15 -742 -5 -744 39 -7 163 -3 170 5 5 7 4 45 -1
91 -10 89 -12 491 -3 507 10 16 102 3 123 -16 73 -66 39 -175 -69 -222 -46
-20 -47 -23 -21 -55 10 -13 48 -82 85 -154 37 -71 74 -136 81 -144 16 -16 182
-25 191 -9 3 5 -2 21 -13 36 -10 15 -22 34 -28 44 -56 92 -92 148 -112 171
-29 36 -29 63 -1 78 63 34 88 88 88 188 0 74 -2 82 -33 123 -21 27 -55 54 -92
73 -57 29 -67 30 -205 33 -80 1 -150 -1 -155 -5z"/>
<path d="M7735 2287 c-3 -6 -4 -176 -3 -377 l3 -365 95 -5 c117 -6 254 6 294
25 16 8 34 15 40 15 27 0 119 95 143 149 23 51 26 68 26 188 0 101 -3 137 -15
155 -8 13 -18 35 -21 49 -4 14 -23 42 -43 63 -88 90 -170 116 -372 116 -105 0
-144 -3 -147 -13z m327 -158 c21 -11 50 -38 65 -61 26 -39 28 -48 28 -152 0
-98 -3 -115 -23 -147 -12 -21 -34 -44 -48 -54 -37 -24 -155 -47 -171 -33 -10
8 -13 64 -13 238 0 124 3 230 8 234 12 12 114 -4 154 -25z"/>
<path d="M1358 529 c-10 -5 -18 -15 -18 -20 0 -10 -18 -53 -66 -155 -35 -75
-31 -106 11 -78 13 8 26 26 29 40 4 13 14 24 24 25 9 0 30 2 46 3 23 1 33 -5
52 -36 13 -21 31 -38 39 -38 29 0 28 32 -3 93 -17 34 -42 88 -56 120 -26 60
-30 63 -58 46z m36 -101 c10 -39 7 -48 -19 -48 -33 0 -42 25 -20 50 23 26 31
25 39 -2z"/>
<path d="M1727 533 c-12 -12 -7 -47 17 -113 13 -36 26 -74 30 -85 26 -72 33
-77 60 -49 9 8 16 28 16 43 0 36 38 123 51 116 5 -4 9 -17 9 -31 0 -28 28
-124 40 -137 19 -21 47 15 68 85 12 41 22 79 22 85 0 6 6 23 14 38 17 32 11
55 -14 55 -26 0 -38 -20 -46 -77 -4 -31 -14 -59 -25 -69 -20 -18 -20 -18 -34
68 -3 20 -13 46 -23 58 -15 19 -19 19 -38 6 -14 -10 -24 -31 -28 -63 -12 -85
-56 -112 -56 -34 0 69 -37 130 -63 104z"/>
<path d="M2823 533 c-16 -11 -21 -239 -5 -255 21 -21 44 11 40 56 -3 35 0 41
16 41 13 0 27 -15 43 -47 29 -59 57 -77 73 -48 9 17 6 27 -20 58 -37 44 -37
55 -5 70 20 9 25 19 25 47 0 52 -31 78 -100 82 -30 2 -60 0 -67 -4z m101 -52
c14 -15 15 -24 6 -40 -15 -30 -57 -28 -72 4 -21 47 31 75 66 36z"/>
<path d="M3278 529 c-16 -9 -18 -26 -18 -125 0 -111 1 -115 24 -125 40 -19
130 -2 164 29 55 49 65 94 36 156 -29 59 -150 98 -206 65z m121 -54 c16 -8 31
-22 35 -30 23 -61 -20 -129 -78 -123 l-31 3 -3 69 c-2 38 -1 75 2 83 7 17 40
17 75 -2z"/>
<path d="M3791 514 c-54 -45 -36 -92 48 -130 32 -14 41 -23 39 -39 -3 -17 -10
-20 -58 -20 -43 0 -55 -3 -58 -17 -4 -22 63 -52 96 -43 43 11 74 51 70 92 -3
32 -9 39 -53 63 -33 18 -50 33 -50 46 0 16 7 19 47 17 34 -1 48 3 52 14 19 48
-82 60 -133 17z"/>
<path d="M4643 527 c-5 -6 -14 -23 -19 -37 -6 -14 -28 -59 -49 -100 -20 -42
-36 -85 -34 -95 6 -29 37 -31 48 -3 12 32 37 51 69 53 37 2 59 -10 66 -39 7
-27 42 -44 58 -28 8 8 4 26 -12 59 -52 112 -69 149 -74 165 -7 24 -42 41 -53
25z m52 -138 c-8 -12 -52 -12 -59 0 -4 5 -1 22 5 38 l11 28 24 -28 c13 -16 22
-33 19 -38z"/>
<path d="M5065 529 c-11 -16 -14 -234 -5 -250 5 -6 15 -9 24 -6 12 5 16 20 16
57 0 44 3 50 20 50 11 0 23 -8 26 -17 15 -45 41 -86 59 -93 44 -17 47 14 5 72
l-30 42 30 31 c36 37 37 51 6 89 -20 25 -31 30 -83 34 -43 3 -63 0 -68 -9z
m100 -45 c19 -20 16 -43 -7 -58 -23 -14 -52 3 -56 34 -6 38 34 53 63 24z"/>
<path d="M5528 529 c-16 -9 -18 -26 -18 -124 0 -134 1 -135 103 -135 47 0 68
4 78 16 21 25 -13 45 -65 38 -31 -5 -45 -2 -55 10 -24 28 -6 45 51 48 45 3 53
6 53 23 0 17 -7 20 -50 20 -49 0 -50 1 -53 32 l-3 32 58 3 c50 3 58 6 58 23 0
18 -7 20 -70 22 -38 2 -78 -2 -87 -8z"/>
<path d="M6333 532 c-13 -8 -21 -231 -9 -250 10 -16 22 -15 39 3 11 11 13 30
10 80 -7 81 10 87 49 17 15 -26 40 -63 57 -82 25 -29 32 -33 48 -24 15 9 19
30 25 125 5 98 4 116 -10 127 -29 22 -37 7 -40 -74 -3 -80 -15 -114 -29 -79
-9 26 -93 148 -107 157 -14 10 -18 10 -33 0z"/>
<path d="M6852 532 c-9 -6 -12 -39 -10 -127 3 -100 6 -120 21 -129 30 -19 37
11 35 139 -3 97 -6 120 -18 122 -8 2 -21 -1 -28 -5z"/>
<path d="M7228 515 c-29 -19 -38 -34 -46 -71 -17 -78 8 -133 77 -168 38 -20
62 -20 106 1 28 13 35 22 35 45 0 32 -6 34 -46 13 -68 -35 -124 -4 -124 70 0
30 6 47 23 63 24 22 87 31 87 12 0 -5 14 -10 30 -10 35 0 39 17 10 48 -30 32
-103 30 -152 -3z"/>
<path d="M7698 529 c-15 -8 -18 -26 -18 -118 0 -139 3 -143 100 -139 69 3 75
5 78 26 4 24 3 24 -73 26 -47 1 -50 3 -53 28 -3 26 -1 27 50 30 45 3 53 6 53
23 0 17 -6 20 -48 18 -42 -1 -48 1 -53 24 -9 34 2 41 66 45 47 3 55 6 55 23 0
18 -7 20 -70 22 -38 2 -78 -2 -87 -8z"/>
<path d="M2390 519 c0 -12 -57 -139 -86 -191 -12 -21 -12 -32 -4 -49 11 -20
12 -20 32 -2 11 10 24 28 29 41 5 13 17 22 31 23 13 0 31 2 41 4 20 4 47 -19
47 -40 0 -14 29 -35 48 -35 23 0 19 35 -13 97 -42 85 -65 138 -65 152 0 6 -13
11 -30 11 -16 0 -30 -5 -30 -11z m50 -99 c14 -26 5 -40 -26 -40 -18 0 -24 5
-24 23 0 41 31 52 50 17z"/>
</g>
</svg>
