<?xml version="1.0" standalone="no"?>
<!DOCTYPE svg PUBLIC "-//W3C//DTD SVG 20010904//EN"
 "http://www.w3.org/TR/2001/REC-SVG-20010904/DTD/svg10.dtd">
<svg version="1.0" xmlns="http://www.w3.org/2000/svg"
 width="300.000000pt" height="84.000000pt" viewBox="0 0 300.000000 84.000000"
 preserveAspectRatio="xMidYMid meet">
<metadata>
Created by potrace 1.10, written by Peter Selinger 2001-2011
</metadata>
<g transform="translate(0.000000,84.000000) scale(0.050000,-0.050000)"
fill="#000000" stroke="none">
<path d="M100 1290 l0 -250 60 0 c59 0 60 2 60 100 l0 100 70 0 c61 0 70 6 70
50 0 44 -9 50 -70 50 -61 0 -70 6 -70 50 0 45 8 50 80 50 44 0 80 8 80 18 0
10 5 33 12 50 11 28 -9 32 -140 32 l-152 0 0 -250z"/>
<path d="M499 1497 c-17 -31 -17 -46 -1 -56 16 -10 5 -69 -37 -199 -74 -226
-74 -217 -3 -207 42 7 62 23 71 58 17 69 157 63 167 -8 6 -37 19 -45 77 -45
48 0 67 8 60 25 -6 14 -43 126 -82 250 l-72 225 -79 0 c-60 0 -84 -10 -101
-43z m150 -212 c13 -60 10 -65 -39 -65 -45 0 -51 6 -40 45 7 25 18 62 24 82
13 48 38 20 55 -62z"/>
<path d="M864 1490 c-20 -44 -19 -50 16 -50 37 0 40 -14 40 -200 0 -200 0
-200 50 -200 49 0 50 4 50 145 l1 145 84 -145 c69 -118 94 -144 135 -145 l50
0 0 250 0 250 -55 0 c-55 0 -55 0 -55 -145 l-1 -145 -84 145 c-97 165 -183
200 -231 95z"/>
<path d="M1360 1490 c0 -42 9 -50 60 -50 l60 0 0 -200 0 -200 60 0 60 0 0 200
c0 198 1 200 48 200 43 0 72 33 72 82 0 10 -81 18 -180 18 -179 0 -180 0 -180
-50z"/>
<path d="M1799 1499 c-17 -33 -17 -48 0 -58 19 -12 -29 -208 -93 -375 -7 -18
8 -26 50 -26 47 0 62 11 73 51 17 71 157 66 167 -6 6 -36 20 -45 73 -45 l65 0
-75 245 -75 245 -81 6 c-66 5 -85 -2 -104 -37z m150 -214 c13 -60 10 -65 -39
-65 -45 0 -51 6 -40 45 7 25 18 62 24 82 13 48 38 20 55 -62z"/>
<path d="M2223 1494 c-72 -78 -31 -234 63 -234 47 0 113 -60 101 -92 -9 -23
-36 -29 -103 -25 -156 9 -167 -90 -12 -113 237 -36 333 213 119 307 -129 58
-118 139 14 101 65 -18 124 51 72 84 -58 37 -208 20 -254 -28z"/>
<path d="M2540 1530 c0 -6 37 -84 81 -172 64 -127 80 -180 75 -245 -6 -80 -4
-83 54 -83 58 0 60 3 54 84 -5 68 10 117 75 241 97 187 97 185 21 185 -45 0
-66 -12 -79 -45 -9 -25 -28 -72 -42 -105 l-24 -60 -47 105 c-42 93 -168 164
-168 95z"/>
<path d="M3265 1492 c-17 -36 -17 -51 -1 -57 18 -6 -26 -171 -99 -370 -6 -17
11 -25 52 -25 50 0 65 10 75 50 18 71 162 75 172 5 5 -37 138 -87 136 -51 -1
3 -35 114 -78 246 l-77 240 -79 6 c-67 5 -82 -1 -101 -44z m135 -129 c0 -10 6
-46 13 -80 10 -53 6 -63 -27 -63 -57 0 -64 15 -40 91 19 62 54 96 54 52z"/>
<path d="M3607 1506 c11 -36 78 -307 101 -411 10 -45 24 -55 71 -55 62 0 61
-2 102 177 28 126 45 116 79 -52 25 -121 27 -125 88 -125 l63 0 62 251 62 251
-62 -6 c-60 -6 -62 -9 -90 -164 -31 -177 -45 -171 -83 33 -36 198 -121 203
-160 10 -44 -215 -61 -203 -104 75 -5 29 -24 42 -73 46 -56 6 -65 1 -56 -30z"/>
<path d="M4339 1497 c-17 -30 -17 -46 -1 -56 15 -9 3 -69 -38 -191 -73 -217
-73 -210 -1 -210 45 0 60 10 65 45 5 38 18 45 86 45 68 0 81 -7 86 -45 6 -36
20 -45 74 -45 l67 0 -59 175 c-32 96 -68 209 -79 250 -25 92 -157 114 -200 32z
m160 -252 c1 -14 -22 -25 -51 -25 -50 0 -56 74 -12 149 12 20 61 -78 63 -124z"/>
<path d="M4724 1290 l4 -250 63 0 62 0 -9 115 c-10 128 1 126 75 -11 43 -79
62 -95 116 -100 78 -8 79 -5 13 100 -50 79 -51 85 -20 137 87 149 6 259 -190
259 l-118 0 4 -250z m214 113 c15 -26 12 -49 -10 -80 -50 -71 -88 -54 -88 37
0 89 60 115 98 43z"/>
<path d="M5160 1293 l0 -252 50 -13 c194 -49 350 63 350 250 0 184 -64 248
-258 258 l-142 9 0 -252z m243 114 c82 -74 38 -253 -68 -278 l-55 -13 0 162
c0 176 33 211 123 129z"/>
<path d="M5683 1494 c-72 -78 -31 -234 63 -234 48 0 113 -60 100 -93 -9 -25
-33 -29 -107 -22 -84 8 -97 4 -107 -32 -14 -55 -1 -69 77 -84 238 -45 357 206
146 306 -132 62 -124 141 10 103 65 -18 124 51 72 84 -58 37 -208 20 -254 -28z"/>
<path d="M2545 367 c-35 -14 -31 -86 5 -100 17 -6 30 -20 30 -31 0 -11 -14
-15 -32 -8 -20 8 -28 3 -23 -13 5 -14 25 -25 46 -25 49 0 64 70 21 94 -41 23
-42 64 0 48 19 -7 28 -3 23 12 -9 28 -35 36 -70 23z"/>
<path d="M4820 340 c-48 -48 -49 -58 -8 -117 34 -48 108 -53 123 -7 6 18 -5
22 -40 13 -36 -9 -53 -3 -63 22 -17 46 25 93 71 78 45 -14 50 22 5 39 -43 17
-43 17 -88 -28z"/>
<path d="M870 280 c-20 -44 -29 -87 -20 -95 8 -8 19 -4 24 10 12 32 71 32 102
1 33 -33 31 3 -6 92 -39 92 -56 91 -100 -8z"/>
<path d="M1173 270 c37 -107 42 -109 72 -25 l22 65 17 -65 c23 -86 45 -82 73
12 33 110 8 163 -27 58 l-15 -45 -9 45 c-12 62 -54 57 -80 -10 l-22 -55 -2 55
c-1 34 -13 55 -31 55 -25 0 -24 -13 2 -90z"/>
<path d="M1574 289 c-45 -93 -43 -115 6 -84 32 20 48 20 80 0 48 -30 50 -14
10 83 -38 90 -54 90 -96 1z"/>
<path d="M1880 270 c0 -85 38 -117 41 -34 1 26 7 23 23 -11 33 -68 49 -55 47
40 -1 77 -6 86 -56 91 -53 6 -55 3 -55 -86z"/>
<path d="M2180 270 c0 -101 60 -127 127 -53 63 70 27 143 -71 143 -53 0 -56
-5 -56 -90z m110 0 c0 -22 -16 -42 -35 -46 -26 -5 -35 6 -35 46 0 40 9 51 35
46 19 -4 35 -24 35 -46z"/>
<path d="M3061 281 c-35 -68 -27 -139 9 -81 17 28 85 25 96 -5 5 -14 15 -19
22 -12 17 15 -46 177 -70 177 -9 0 -35 -36 -57 -79z"/>
<path d="M3380 270 c0 -85 38 -117 41 -34 1 26 7 23 23 -11 33 -68 49 -55 47
40 -1 77 -6 86 -56 91 -53 6 -55 3 -55 -86z"/>
<path d="M3680 270 c0 -87 2 -90 60 -90 33 0 60 9 60 20 0 11 -18 20 -40 20
-22 0 -40 9 -40 20 0 11 18 20 40 20 55 0 51 40 -5 41 l-45 2 45 18 c62 24 56
39 -15 39 -58 0 -60 -3 -60 -90z"/>
<path d="M4220 269 c0 -56 8 -87 20 -79 11 7 20 32 21 56 0 42 2 41 41 -11 23
-30 50 -50 60 -44 25 15 23 169 -2 169 -11 0 -20 -25 -21 -55 l0 -55 -41 55
c-58 78 -78 69 -78 -36z"/>
<path d="M4560 281 c0 -43 9 -84 20 -91 12 -8 20 23 20 79 0 50 -9 91 -20 91
-11 0 -20 -35 -20 -79z"/>
<path d="M5124 275 c6 -89 70 -129 122 -77 16 16 7 22 -32 22 -30 0 -54 9 -54
20 0 11 18 20 40 20 55 0 51 35 -5 46 l-45 9 45 2 c68 4 54 43 -16 43 -60 0
-61 -2 -55 -85z"/>
</g>
</svg>
