<?xml version="1.0" standalone="no"?>
<!DOCTYPE svg PUBLIC "-//W3C//DTD SVG 20010904//EN"
 "http://www.w3.org/TR/2001/REC-SVG-20010904/DTD/svg10.dtd">
<svg version="1.0" xmlns="http://www.w3.org/2000/svg"
 width="300.000000pt" height="84.000000pt" viewBox="0 0 300.000000 84.000000"
 preserveAspectRatio="xMidYMid meet">
<metadata>
Created by potrace 1.10, written by Peter Selinger 2001-2011
</metadata>
<g transform="translate(0.000000,84.000000) scale(0.100000,-0.100000)"
fill="#000000" stroke="none">
<path d="M50 645 l0 -125 30 0 c29 0 30 1 30 50 l0 50 35 0 c31 0 35 3 35 25
0 22 -4 25 -35 25 -31 0 -35 3 -35 25 0 23 4 25 40 25 22 0 40 4 40 9 0 5 3
16 6 25 5 14 -5 16 -70 16 l-76 0 0 -125z"/>
<path d="M249 749 c-8 -16 -8 -23 1 -29 11 -7 -7 -77 -48 -187 -3 -9 6 -13 26
-13 24 0 31 5 34 23 2 18 10 23 46 25 39 3 42 1 42 -22 0 -23 4 -26 34 -26
l35 0 -20 57 c-11 32 -29 88 -40 125 l-20 68 -39 0 c-30 0 -42 -5 -51 -21z
m76 -106 c6 -31 5 -33 -20 -33 -20 0 -25 4 -21 18 3 9 8 30 12 46 8 32 17 22
29 -31z"/>
<path d="M432 745 c-10 -22 -9 -25 8 -25 19 0 20 -7 20 -100 0 -100 0 -100 25
-100 24 0 25 2 25 73 l0 72 43 -72 c34 -59 47 -73 67 -73 l25 0 -2 122 -2 123
-26 3 -27 3 4 -70 c1 -39 0 -71 -3 -71 -4 0 -16 17 -27 38 -51 96 -56 102 -88
102 -23 0 -34 -6 -42 -25z"/>
<path d="M680 745 c0 -21 5 -25 30 -25 l30 0 0 -100 0 -100 30 0 30 0 0 100
c0 100 0 100 25 100 14 0 25 4 25 9 0 5 3 16 6 25 5 14 -6 16 -85 16 -90 0
-91 0 -91 -25z"/>
<path d="M899 749 c-8 -16 -8 -23 1 -29 11 -7 -7 -77 -48 -187 -3 -9 6 -13 26
-13 24 0 31 5 34 23 2 18 10 23 45 25 37 3 42 0 45 -20 2 -18 10 -24 35 -26
31 -3 32 -2 24 20 -5 13 -23 69 -40 126 l-32 102 -39 0 c-30 0 -42 -5 -51 -21z
m75 -101 c7 -36 5 -38 -19 -38 -20 0 -25 4 -21 18 3 9 8 30 12 45 8 35 19 25
28 -25z"/>
<path d="M1115 745 c-14 -13 -25 -36 -25 -50 0 -26 31 -65 53 -65 23 0 56 -30
50 -46 -4 -11 -18 -15 -52 -12 -43 2 -46 1 -49 -25 -3 -24 0 -27 30 -28 80 -3
107 7 123 45 21 49 9 73 -46 102 -49 24 -62 47 -34 58 8 3 26 1 38 -3 19 -7
26 -5 36 11 17 27 1 38 -57 38 -32 0 -49 -6 -67 -25z"/>
<path d="M1270 766 c0 -3 18 -42 41 -87 32 -63 40 -90 37 -120 -3 -38 -2 -39
27 -39 29 0 30 1 27 38 -3 30 5 57 37 120 23 45 41 84 41 87 0 3 -13 5 -30 5
-26 0 -31 -5 -47 -50 -10 -27 -21 -50 -24 -50 -3 0 -16 23 -27 50 -19 45 -24
50 -51 50 -17 0 -31 -2 -31 -4z"/>
<path d="M1632 745 c-9 -20 -9 -25 1 -25 10 0 6 -22 -14 -82 -15 -46 -30 -91
-34 -100 -6 -15 -2 -18 23 -18 23 0 31 5 36 25 5 21 12 25 45 25 33 0 40 -4
43 -22 2 -18 11 -24 36 -26 17 -2 32 -2 32 0 0 2 -18 57 -39 123 l-40 120 -38
3 c-34 3 -41 -1 -51 -23z m68 -59 c0 -7 3 -28 6 -45 6 -29 4 -31 -21 -31 -22
0 -26 3 -20 18 3 9 9 29 12 45 6 28 23 38 23 13z"/>
<path d="M1804 753 c3 -10 17 -66 32 -125 26 -106 27 -108 55 -108 23 0 30 5
35 28 32 140 33 141 54 35 12 -61 14 -63 44 -63 l32 0 27 118 c15 64 27 120
27 125 0 4 -11 7 -24 7 -27 0 -30 -5 -45 -94 -16 -88 -18 -87 -41 32 -12 58
-15 62 -40 62 -26 0 -28 -4 -45 -81 -9 -44 -19 -78 -21 -76 -3 3 -10 38 -17
78 -12 74 -13 74 -46 77 -28 3 -32 1 -27 -15z"/>
<path d="M2169 749 c-8 -16 -8 -23 0 -28 8 -5 2 -35 -19 -96 -16 -49 -30 -92
-30 -97 0 -4 14 -8 30 -8 26 0 30 4 30 26 0 23 3 25 43 22 35 -2 43 -7 45 -25
3 -19 10 -23 37 -23 l34 0 -30 88 c-16 48 -34 104 -40 125 -9 35 -12 37 -49
37 -30 0 -42 -5 -51 -21z m80 -126 c1 -7 -10 -13 -24 -13 -29 0 -29 1 -14 55
l12 40 13 -35 c7 -19 13 -41 13 -47z"/>
<path d="M2365 646 l0 -126 30 0 30 0 -3 100 c-3 93 -2 100 16 100 30 0 46
-24 33 -49 -6 -11 -19 -24 -28 -29 -15 -9 -13 -15 14 -63 25 -45 35 -55 62
-57 17 -2 31 0 31 3 0 4 -14 26 -30 50 l-31 44 21 21 c27 27 27 81 -1 106 -14
12 -40 19 -82 22 l-63 4 1 -126z"/>
<path d="M2580 645 l0 -125 33 -1 c91 -3 142 15 157 57 15 39 12 117 -6 142
-24 34 -68 52 -129 52 l-55 0 0 -125z m122 58 c13 -11 18 -30 18 -63 0 -51 -9
-64 -53 -75 l-27 -7 0 81 c0 76 1 81 22 81 12 0 30 -7 40 -17z"/>
<path d="M2846 749 c-17 -14 -26 -30 -26 -50 0 -30 30 -69 53 -69 24 0 56 -30
50 -46 -5 -13 -16 -15 -54 -12 -43 5 -48 3 -52 -19 -5 -28 -2 -30 38 -33 93
-6 125 14 125 80 0 38 -3 41 -50 65 -50 25 -63 48 -35 59 8 3 26 1 38 -3 19
-7 26 -5 36 11 11 17 10 22 -1 29 -25 17 -94 10 -122 -12z"/>
<path d="M436 139 c-9 -23 -15 -44 -12 -47 3 -3 8 3 12 12 8 21 33 21 50 -1 7
-10 14 -13 14 -7 0 19 -30 84 -39 84 -5 0 -16 -19 -25 -41z"/>
<path d="M580 167 c0 -8 6 -30 14 -48 l15 -34 12 35 12 34 12 -34 c11 -32 13
-33 22 -15 17 33 24 75 13 75 -5 0 -10 -9 -10 -19 0 -28 -18 -36 -22 -9 -4 28
-28 36 -28 9 0 -11 -4 -23 -10 -26 -5 -3 -10 3 -10 14 0 11 -4 23 -10 26 -5 3
-10 0 -10 -8z"/>
<path d="M785 140 c-10 -22 -15 -43 -12 -47 4 -3 9 2 13 11 8 21 40 21 48 0 4
-9 9 -14 13 -11 7 8 -27 87 -37 87 -4 0 -15 -18 -25 -40z"/>
<path d="M940 134 c0 -29 4 -43 11 -39 6 4 8 13 5 21 -8 22 12 16 24 -7 7 -11
14 -18 17 -16 2 3 0 14 -6 25 -8 15 -8 21 1 24 21 7 0 38 -27 38 -23 0 -25 -3
-25 -46z"/>
<path d="M1090 140 c0 -48 18 -60 55 -36 44 29 27 76 -27 76 -26 0 -28 -3 -28
-40z m48 21 c19 -11 11 -45 -11 -49 -13 -3 -17 3 -17 27 0 32 6 37 28 22z"/>
<path d="M1267 173 c-13 -13 -7 -32 13 -38 27 -9 25 -25 -2 -25 -16 0 -19 -3
-11 -11 7 -7 19 -9 27 -6 20 8 21 43 1 51 -8 3 -15 10 -15 17 0 6 7 9 15 5 8
-3 15 -1 15 4 0 11 -33 14 -43 3z"/>
<path d="M1535 144 c-17 -41 -20 -68 -4 -41 13 22 27 22 52 0 11 -10 18 -13
16 -8 -2 6 -11 27 -19 48 -8 20 -18 37 -22 37 -4 0 -15 -16 -23 -36z"/>
<path d="M1691 133 c1 -27 4 -38 6 -25 5 27 20 29 28 2 3 -11 11 -20 16 -20
12 0 11 14 -3 28 -8 8 -8 15 1 26 17 20 6 36 -25 36 -22 0 -24 -3 -23 -47z"/>
<path d="M1842 138 c3 -39 6 -43 31 -46 15 -2 27 1 27 7 0 6 -9 11 -20 11 -11
0 -20 5 -20 10 0 6 9 10 21 10 12 0 17 4 14 11 -4 6 -13 8 -21 5 -8 -3 -14 1
-14 9 0 7 10 16 23 18 15 3 12 5 -11 6 -33 1 -33 1 -30 -41z"/>
<path d="M2110 134 c0 -29 4 -44 9 -39 15 16 18 77 4 82 -9 3 -13 -9 -13 -43z"/>
<path d="M2170 148 c0 -30 -1 -31 -15 -12 -19 26 -19 4 1 -24 8 -12 20 -20 25
-17 12 8 12 85 -1 85 -5 0 -10 -14 -10 -32z"/>
<path d="M2280 141 c0 -22 5 -43 10 -46 6 -4 10 12 10 39 0 25 -4 46 -10 46
-5 0 -10 -18 -10 -39z"/>
<path d="M2401 158 c-12 -30 9 -63 39 -63 13 0 25 5 27 11 2 7 -6 10 -21 7
-18 -4 -28 0 -32 11 -9 23 15 48 39 40 13 -4 17 -2 13 5 -13 20 -56 13 -65
-11z"/>
<path d="M2562 138 c3 -39 6 -43 31 -46 15 -2 27 1 27 7 0 6 -9 11 -20 11 -11
0 -20 5 -20 10 0 6 9 10 21 10 12 0 17 4 14 11 -4 6 -13 8 -21 5 -8 -3 -14 1
-14 9 0 7 10 16 23 18 15 3 12 5 -11 6 -33 1 -33 1 -30 -41z"/>
</g>
</svg>
